<svg version="1.1" id="Layer_1" xmlns="http://www.w3.org/2000/svg" xmlns:xlink="http://www.w3.org/1999/xlink" x="0px" y="0px"
	 width="100%" viewBox="0 0 256 256" enable-background="new 0 0 256 256" xml:space="preserve">
<path fill="transparent" opacity="1.000000" stroke="transparent" 
	d="
M138.000000,1.000000 
	C177.631729,1.000000 217.263443,1.000000 256.947571,1.000000 
	C256.947571,86.223198 256.947571,171.446442 256.947571,257.000000 
	C216.646378,257.000000 176.291840,257.000000 135.473679,256.587219 
	C135.330215,254.445114 136.048355,252.682785 135.908157,250.991623 
	C134.692932,236.332153 132.507431,221.702774 132.195892,207.030777 
	C131.755844,186.307373 132.640976,165.554810 133.009308,144.815598 
	C133.300766,128.405701 133.574966,111.994537 134.038315,95.589066 
	C134.274384,87.231140 134.909988,78.884499 135.401688,69.859261 
	C141.967545,75.743645 148.019211,81.690887 154.685181,86.843376 
	C156.874146,88.535347 160.970032,89.216385 163.613907,88.424149 
	C165.919891,87.733139 166.679123,84.451576 165.261414,81.258324 
	C164.184967,78.833687 164.446793,75.834625 163.990692,73.111671 
	C160.948578,54.950016 155.600433,37.519478 147.482742,20.956442 
	C144.241730,14.343557 141.156265,7.654423 138.000000,1.000000 
z"/>
<path fill="transparent" opacity="1.000000" stroke="transparent" 
	d="
M127.000000,257.000000 
	C85.036041,257.000000 43.072086,257.000000 1.054066,257.000000 
	C1.054066,171.775970 1.054066,86.551903 1.054066,1.000000 
	C43.353664,1.000000 85.708176,1.000000 128.823166,1.298378 
	C127.921127,4.354663 126.092285,7.026990 124.622223,9.883929 
	C112.139824,34.142403 99.964615,58.515156 92.810570,85.062950 
	C91.821548,88.733063 92.179008,91.741959 94.941231,93.035652 
	C97.085655,94.040001 100.717079,93.450073 102.977547,92.241165 
	C106.070717,90.586945 108.399948,87.559418 111.220619,85.327812 
	C115.598389,81.864296 120.114471,78.575607 124.571915,75.212799 
	C123.970963,74.611298 123.370010,74.009796 122.769066,73.408295 
	C122.512840,76.269264 122.178505,79.125809 122.016052,81.992081 
	C121.634041,88.732277 121.303123,95.475761 121.007248,102.220360 
	C120.320740,117.868996 119.210541,133.516251 119.113380,149.169281 
	C118.985817,169.723007 119.346260,190.294266 120.149651,210.832458 
	C120.496765,219.706345 122.412392,228.526138 123.737587,237.352158 
	C124.723228,243.916718 125.905373,250.451797 127.000000,257.000000 
z"/>
<path fill="currentcolor" opacity="1.000000" stroke="currentcolor" 
	d="
M127.444168,257.000000 
	C125.905373,250.451797 124.723228,243.916718 123.737587,237.352158 
	C122.412392,228.526138 120.496765,219.706345 120.149651,210.832458 
	C119.346260,190.294266 118.985817,169.723007 119.113380,149.169281 
	C119.210541,133.516251 120.320740,117.868996 121.007248,102.220360 
	C121.303123,95.475761 121.634041,88.732277 122.016052,81.992081 
	C122.178505,79.125809 122.512840,76.269264 122.769066,73.408295 
	C123.370010,74.009796 123.970963,74.611298 124.571915,75.212799 
	C120.114471,78.575607 115.598389,81.864296 111.220619,85.327812 
	C108.399948,87.559418 106.070717,90.586945 102.977547,92.241165 
	C100.717079,93.450073 97.085655,94.040001 94.941231,93.035652 
	C92.179008,91.741959 91.821548,88.733063 92.810570,85.062950 
	C99.964615,58.515156 112.139824,34.142403 124.622223,9.883929 
	C126.092285,7.026990 127.921127,4.354663 129.291824,1.298378 
	C131.700012,1.000000 134.400024,1.000000 137.550018,1.000000 
	C141.156265,7.654423 144.241730,14.343557 147.482742,20.956442 
	C155.600433,37.519478 160.948578,54.950016 163.990692,73.111671 
	C164.446793,75.834625 164.184967,78.833687 165.261414,81.258324 
	C166.679123,84.451576 165.919891,87.733139 163.613907,88.424149 
	C160.970032,89.216385 156.874146,88.535347 154.685181,86.843376 
	C148.019211,81.690887 141.967545,75.743645 135.401688,69.859261 
	C134.909988,78.884499 134.274384,87.231140 134.038315,95.589066 
	C133.574966,111.994537 133.300766,128.405701 133.009308,144.815598 
	C132.640976,165.554810 131.755844,186.307373 132.195892,207.030777 
	C132.507431,221.702774 134.692932,236.332153 135.908157,250.991623 
	C136.048355,252.682785 135.330215,254.445114 135.005020,256.587219 
	C132.629440,257.000000 130.258896,257.000000 127.444168,257.000000 
M123.003258,56.464046 
	C124.268318,52.624599 126.197609,51.551899 130.595566,52.725849 
	C136.693512,54.353580 140.023010,58.936253 144.230057,62.700634 
	C145.890900,64.186714 147.711365,65.494400 149.459137,66.883324 
	C146.839966,49.873852 141.280151,34.410229 132.597198,18.590570 
	C124.423027,36.568649 116.780586,53.377235 109.138153,70.185822 
	C109.695335,70.526268 110.252525,70.866714 110.809708,71.207161 
	C114.872871,66.556099 118.936035,61.905037 123.003258,56.464046 
z"/>
<path fill="transparent" opacity="1.000000" stroke="transparent" 
	d="
M123.001228,56.859009 
	C118.936035,61.905037 114.872871,66.556099 110.809708,71.207161 
	C110.252525,70.866714 109.695335,70.526268 109.138153,70.185822 
	C116.780586,53.377235 124.423027,36.568649 132.597198,18.590570 
	C141.280151,34.410229 146.839966,49.873852 149.459137,66.883324 
	C147.711365,65.494400 145.890900,64.186714 144.230057,62.700634 
	C140.023010,58.936253 136.693512,54.353580 130.595566,52.725849 
	C126.197609,51.551899 124.268318,52.624599 123.001228,56.859009 
z"/>
</svg>