<svg version="1.1" id="Layer_1" xmlns="http://www.w3.org/2000/svg" xmlns:xlink="http://www.w3.org/1999/xlink" x="0px" y="0px"
	 width="100%" viewBox="0 0 256 256" enable-background="new 0 0 256 256" xml:space="preserve">
<path fill="transparent" opacity="1.000000" stroke="transparent" 
	d="
M257.000000,109.000000 
	C257.000000,158.293701 257.000000,207.587402 257.000000,256.940552 
	C171.774872,256.940552 86.549706,256.940552 1.000000,256.940552 
	C1.000000,210.312943 1.000000,163.625122 1.337469,116.171585 
	C3.780961,120.716606 5.805165,126.061584 8.008861,131.331512 
	C13.844489,145.286835 21.852360,157.929916 31.830486,169.253586 
	C40.531731,179.128189 50.529022,187.581696 62.274628,193.638000 
	C77.449280,201.462433 87.269783,201.937820 97.927773,190.559662 
	C110.180946,177.478561 122.431145,164.394699 134.726166,151.265549 
	C143.883209,160.651016 154.558472,168.220825 166.568985,173.896332 
	C169.302689,175.188110 173.005035,175.627914 174.668701,177.724060 
	C177.659424,181.492249 180.700180,180.418884 183.647995,178.981323 
	C187.821014,176.946259 191.862564,174.513199 195.623291,171.785568 
	C206.233612,164.089966 217.215012,156.776077 227.036728,148.156906 
	C238.553848,138.049866 248.854523,126.631531 254.135223,111.664680 
	C254.519638,110.575157 256.019012,109.879028 257.000000,109.000000 
z"/>
<path fill="transparent" opacity="1.000000" stroke="transparent" 
	d="
M1.000000,87.000000 
	C1.000000,58.362862 1.000000,29.725721 1.000000,1.044291 
	C86.215889,1.044291 171.431808,1.044291 257.000000,1.044291 
	C257.000000,28.353220 257.000000,55.707951 256.681702,83.824982 
	C254.002991,80.633423 251.748199,76.611816 249.263107,72.737953 
	C240.534744,59.131859 220.365463,55.707169 207.072159,61.404808 
	C195.372681,66.419312 188.292725,75.891739 182.603516,86.711990 
	C165.256790,60.555790 137.061951,58.125759 123.376068,72.625084 
	C114.433777,63.345520 103.952164,64.248047 93.005035,67.967567 
	C81.713951,71.803947 75.332436,80.557396 70.323082,91.202614 
	C61.003750,75.371277 48.845089,65.765823 29.782442,66.824394 
	C19.263363,67.408539 6.611595,74.248154 2.939214,85.551537 
	C2.735610,86.178223 1.666339,86.523659 1.000000,87.000000 
z"/>
<path fill="currentcolor" opacity="1.000000" stroke="currentcolor" 
	d="
M1.000000,87.468658 
	C1.666339,86.523659 2.735610,86.178223 2.939214,85.551537 
	C6.611595,74.248154 19.263363,67.408539 29.782442,66.824394 
	C48.845089,65.765823 61.003750,75.371277 70.323082,91.202614 
	C75.332436,80.557396 81.713951,71.803947 93.005035,67.967567 
	C103.952164,64.248047 114.433777,63.345520 123.376068,72.625084 
	C137.061951,58.125759 165.256790,60.555790 182.603516,86.711990 
	C188.292725,75.891739 195.372681,66.419312 207.072159,61.404808 
	C220.365463,55.707169 240.534744,59.131859 249.263107,72.737953 
	C251.748199,76.611816 254.002991,80.633423 256.681702,84.293640 
	C257.000000,92.020897 257.000000,100.041801 257.000000,108.531357 
	C256.019012,109.879028 254.519638,110.575157 254.135223,111.664680 
	C248.854523,126.631531 238.553848,138.049866 227.036728,148.156906 
	C217.215012,156.776077 206.233612,164.089966 195.623291,171.785568 
	C191.862564,174.513199 187.821014,176.946259 183.647995,178.981323 
	C180.700180,180.418884 177.659424,181.492249 174.668701,177.724060 
	C173.005035,175.627914 169.302689,175.188110 166.568985,173.896332 
	C154.558472,168.220825 143.883209,160.651016 134.726166,151.265549 
	C122.431145,164.394699 110.180946,177.478561 97.927773,190.559662 
	C87.269783,201.937820 77.449280,201.462433 62.274628,193.638000 
	C50.529022,187.581696 40.531731,179.128189 31.830486,169.253586 
	C21.852360,157.929916 13.844489,145.286835 8.008861,131.331512 
	C5.805165,126.061584 3.780961,120.716606 1.337469,115.702927 
	C1.000000,106.645775 1.000000,97.291542 1.000000,87.468658 
M32.555454,77.000282 
	C28.051119,78.483559 22.839506,78.990273 19.180296,81.640457 
	C9.700318,88.506310 7.724029,99.167091 11.583868,112.228325 
	C16.168167,127.741035 23.942970,141.659607 33.917355,154.031143 
	C41.863914,163.887497 51.114227,172.937210 60.897598,180.995117 
	C69.591782,188.155945 79.663757,187.994873 90.185150,181.438995 
	C102.923187,173.501953 112.861839,162.494247 123.383080,152.105637 
	C129.398148,146.166382 129.554489,145.999573 124.520782,139.100708 
	C116.986618,128.774887 112.454788,117.080231 112.382378,104.612312 
	C112.333160,96.138336 115.790398,87.643997 117.796280,78.634689 
	C109.040138,71.986794 98.275314,74.090538 89.700462,81.891296 
	C81.401840,89.440758 77.242279,98.983963 76.827843,110.294250 
	C76.768791,111.905701 74.679863,114.208107 73.028175,114.808044 
	C70.810783,115.613472 68.637657,115.296524 67.729416,111.642120 
	C66.313293,105.944237 64.242615,100.236504 61.423290,95.095627 
	C55.452160,84.207596 46.520634,77.260658 32.555454,77.000282 
M138.613419,75.888748 
	C134.736984,78.645523 130.138779,80.786346 127.144020,84.295555 
	C121.941689,90.391586 121.473282,97.798203 122.855644,105.771820 
	C125.057495,118.472343 129.479050,129.919937 138.110840,139.610809 
	C148.865967,151.685562 162.231934,160.436508 175.556320,169.269318 
	C177.065292,170.269638 177.575363,170.483841 179.349487,169.388016 
	C197.378098,158.252029 214.697144,146.323959 228.583221,129.983887 
	C236.525879,120.637581 242.422028,110.659721 245.267166,98.352737 
	C249.354324,80.673416 234.237701,65.387978 216.698151,69.885490 
	C200.246490,74.104042 189.939285,85.626167 188.861389,102.187889 
	C188.757294,103.787460 186.935211,106.203903 185.511185,106.537849 
	C183.967361,106.899872 181.055603,105.760239 180.317047,104.411888 
	C178.107117,100.377235 177.026505,95.728378 174.852341,91.668861 
	C170.419556,83.392136 164.736313,75.932373 154.748260,74.479897 
	C149.705246,73.746536 144.379456,74.957909 138.613419,75.888748 
z"/>
<path fill="transparent" opacity="1.000000" stroke="transparent" 
	d="
M33.012955,77.000275 
	C46.520634,77.260658 55.452160,84.207596 61.423290,95.095627 
	C64.242615,100.236504 66.313293,105.944237 67.729416,111.642120 
	C68.637657,115.296524 70.810783,115.613472 73.028175,114.808044 
	C74.679863,114.208107 76.768791,111.905701 76.827843,110.294250 
	C77.242279,98.983963 81.401840,89.440758 89.700462,81.891296 
	C98.275314,74.090538 109.040138,71.986794 117.796280,78.634689 
	C115.790398,87.643997 112.333160,96.138336 112.382378,104.612312 
	C112.454788,117.080231 116.986618,128.774887 124.520782,139.100708 
	C129.554489,145.999573 129.398148,146.166382 123.383080,152.105637 
	C112.861839,162.494247 102.923187,173.501953 90.185150,181.438995 
	C79.663757,187.994873 69.591782,188.155945 60.897598,180.995117 
	C51.114227,172.937210 41.863914,163.887497 33.917355,154.031143 
	C23.942970,141.659607 16.168167,127.741035 11.583868,112.228325 
	C7.724029,99.167091 9.700318,88.506310 19.180296,81.640457 
	C22.839506,78.990273 28.051119,78.483559 33.012955,77.000275 
z"/>
<path fill="transparent" opacity="1.000000" stroke="transparent" 
	d="
M138.897461,75.589355 
	C144.379456,74.957909 149.705246,73.746536 154.748260,74.479897 
	C164.736313,75.932373 170.419556,83.392136 174.852341,91.668861 
	C177.026505,95.728378 178.107117,100.377235 180.317047,104.411888 
	C181.055603,105.760239 183.967361,106.899872 185.511185,106.537849 
	C186.935211,106.203903 188.757294,103.787460 188.861389,102.187889 
	C189.939285,85.626167 200.246490,74.104042 216.698151,69.885490 
	C234.237701,65.387978 249.354324,80.673416 245.267166,98.352737 
	C242.422028,110.659721 236.525879,120.637581 228.583221,129.983887 
	C214.697144,146.323959 197.378098,158.252029 179.349487,169.388016 
	C177.575363,170.483841 177.065292,170.269638 175.556320,169.269318 
	C162.231934,160.436508 148.865967,151.685562 138.110840,139.610809 
	C129.479050,129.919937 125.057495,118.472343 122.855644,105.771820 
	C121.473282,97.798203 121.941689,90.391586 127.144020,84.295555 
	C130.138779,80.786346 134.736984,78.645523 138.897461,75.589355 
z"/>
</svg>