<svg version="1.1" id="Layer_1" xmlns="http://www.w3.org/2000/svg" xmlns:xlink="http://www.w3.org/1999/xlink" x="0px" y="0px"
	 width="100%" viewBox="0 0 256 256" enable-background="new 0 0 256 256" xml:space="preserve">
<path fill="transparent" opacity="1.000000" stroke="none" 
	d="
M172.000000,257.000000 
	C114.666672,257.000000 57.833340,257.000000 1.000008,257.000000 
	C1.000005,171.666672 1.000005,86.333351 1.000003,1.000019 
	C86.333321,1.000013 171.666641,1.000013 257.000000,1.000006 
	C257.000000,86.333313 257.000000,171.666626 257.000000,256.999969 
	C228.833328,257.000000 200.666672,257.000000 172.000000,257.000000 
M208.499908,184.000061 
	C216.630981,176.198746 224.803940,168.440445 232.876358,160.578888 
	C237.235901,156.333221 236.889725,154.590164 231.502441,151.871277 
	C221.321503,146.733047 211.210480,141.445969 200.887573,136.611130 
	C199.459381,135.942230 196.505005,136.983124 195.192520,138.222763 
	C194.457809,138.916702 195.223679,141.894363 196.098434,143.381180 
	C196.820312,144.608154 198.636505,145.277252 200.071152,145.983475 
	C205.237671,148.526733 210.447922,150.981079 216.449997,153.856216 
	C178.104401,156.032074 140.787033,156.689621 102.351128,155.484467 
	C117.670380,143.371658 129.067474,130.529419 134.079330,112.824036 
	C137.854843,99.486267 138.916794,86.326691 132.753784,73.427612 
	C129.284531,66.166512 121.629066,63.268909 113.791214,65.673393 
	C106.473549,67.918297 102.754532,73.851723 99.073311,79.767624 
	C97.200821,82.776779 95.845261,86.107613 94.233635,89.337906 
	C90.163887,82.954605 86.829697,76.848030 82.642578,71.396568 
	C78.177483,65.583191 72.800385,60.209949 64.410805,62.089859 
	C56.752777,63.805843 52.708057,69.786537 51.276447,76.808693 
	C49.977863,83.178337 49.132309,90.109612 50.245304,96.412132 
	C53.368660,114.098602 60.535294,130.217667 72.468224,143.919296 
	C75.735428,147.670776 79.268356,151.190811 83.793106,156.001099 
	C71.752480,157.755753 60.648422,159.613770 49.478302,160.896454 
	C44.215343,161.500793 38.825390,161.022919 33.493240,160.991699 
	C30.479818,160.974060 28.232323,162.452881 28.144514,165.322464 
	C28.046059,168.539932 30.415615,170.164703 33.625179,169.967239 
	C36.549522,169.787323 39.457264,169.044800 42.371857,169.047546 
	C59.415382,169.063599 76.114044,167.234680 92.011459,160.556534 
	C92.701309,160.266724 93.709846,160.732803 94.569450,160.850235 
	C104.692360,162.233109 114.779640,164.222504 124.948631,164.818863 
	C133.982208,165.348663 143.104004,164.182419 152.191193,164.039307 
	C162.853210,163.871384 173.519989,164.022247 184.184464,163.976318 
	C185.808533,163.969315 187.430496,163.501663 189.054688,163.493378 
	C198.563400,163.444839 208.072479,163.469559 217.330093,163.469559 
	C209.825439,170.889114 201.639694,178.697495 193.885834,186.913467 
	C192.510132,188.371170 191.795044,192.327728 192.776199,193.717331 
	C194.464493,196.108414 197.434021,194.974686 199.500916,192.959335 
	C202.362564,190.169067 205.169464,187.322632 208.499908,184.000061 
z"/>
<path fill="#FFFFFF" opacity="1.000000" stroke="none" 
	d="
M208.249863,184.250153 
	C205.169464,187.322632 202.362564,190.169067 199.500916,192.959335 
	C197.434021,194.974686 194.464493,196.108414 192.776199,193.717331 
	C191.795044,192.327728 192.510132,188.371170 193.885834,186.913467 
	C201.639694,178.697495 209.825439,170.889114 217.330093,163.469559 
	C208.072479,163.469559 198.563400,163.444839 189.054688,163.493378 
	C187.430496,163.501663 185.808533,163.969315 184.184464,163.976318 
	C173.519989,164.022247 162.853210,163.871384 152.191193,164.039307 
	C143.104004,164.182419 133.982208,165.348663 124.948631,164.818863 
	C114.779640,164.222504 104.692360,162.233109 94.569450,160.850235 
	C93.709846,160.732803 92.701309,160.266724 92.011459,160.556534 
	C76.114044,167.234680 59.415382,169.063599 42.371857,169.047546 
	C39.457264,169.044800 36.549522,169.787323 33.625179,169.967239 
	C30.415615,170.164703 28.046059,168.539932 28.144514,165.322464 
	C28.232323,162.452881 30.479818,160.974060 33.493240,160.991699 
	C38.825390,161.022919 44.215343,161.500793 49.478302,160.896454 
	C60.648422,159.613770 71.752480,157.755753 83.793106,156.001099 
	C79.268356,151.190811 75.735428,147.670776 72.468224,143.919296 
	C60.535294,130.217667 53.368660,114.098602 50.245304,96.412132 
	C49.132309,90.109612 49.977863,83.178337 51.276447,76.808693 
	C52.708057,69.786537 56.752777,63.805843 64.410805,62.089859 
	C72.800385,60.209949 78.177483,65.583191 82.642578,71.396568 
	C86.829697,76.848030 90.163887,82.954605 94.233635,89.337906 
	C95.845261,86.107613 97.200821,82.776779 99.073311,79.767624 
	C102.754532,73.851723 106.473549,67.918297 113.791214,65.673393 
	C121.629066,63.268909 129.284531,66.166512 132.753784,73.427612 
	C138.916794,86.326691 137.854843,99.486267 134.079330,112.824036 
	C129.067474,130.529419 117.670380,143.371658 102.351128,155.484467 
	C140.787033,156.689621 178.104401,156.032074 216.449997,153.856216 
	C210.447922,150.981079 205.237671,148.526733 200.071152,145.983475 
	C198.636505,145.277252 196.820312,144.608154 196.098434,143.381180 
	C195.223679,141.894363 194.457809,138.916702 195.192520,138.222763 
	C196.505005,136.983124 199.459381,135.942230 200.887573,136.611130 
	C211.210480,141.445969 221.321503,146.733047 231.502441,151.871277 
	C236.889725,154.590164 237.235901,156.333221 232.876358,160.578888 
	C224.803940,168.440445 216.630981,176.198746 208.249863,184.250153 
M109.416428,79.064919 
	C106.404289,85.765945 103.559601,92.550354 100.287247,99.121803 
	C99.174423,101.356537 97.304810,104.119202 95.211433,104.749794 
	C92.034081,105.706909 90.448273,102.695633 88.919395,99.973457 
	C84.058304,91.318207 79.339088,82.517883 73.661148,74.406334 
	C68.619072,67.203186 63.562931,68.654434 60.069424,77.504448 
	C57.645687,83.644440 57.530766,89.964775 58.883579,96.604889 
	C62.939301,116.511909 72.267174,133.281738 87.382439,146.794037 
	C89.825035,148.977600 92.466232,151.450500 96.351120,148.944000 
	C105.846588,142.817566 113.203270,134.671265 119.286728,125.263977 
	C124.349808,117.434563 127.201248,109.009796 128.350418,99.622482 
	C129.339050,91.546684 128.535416,84.171837 124.954666,77.076447 
	C122.691696,72.592270 119.000519,71.810188 114.897385,74.607803 
	C113.161453,75.791389 111.602669,77.234795 109.416428,79.064919 
z"/>
<path fill="transparent" opacity="1.000000" stroke="none" 
	d="
M109.689896,78.812515 
	C111.602669,77.234795 113.161453,75.791389 114.897385,74.607803 
	C119.000519,71.810188 122.691696,72.592270 124.954666,77.076447 
	C128.535416,84.171837 129.339050,91.546684 128.350418,99.622482 
	C127.201248,109.009796 124.349808,117.434563 119.286728,125.263977 
	C113.203270,134.671265 105.846588,142.817566 96.351120,148.944000 
	C92.466232,151.450500 89.825035,148.977600 87.382439,146.794037 
	C72.267174,133.281738 62.939301,116.511909 58.883579,96.604889 
	C57.530766,89.964775 57.645687,83.644440 60.069424,77.504448 
	C63.562931,68.654434 68.619072,67.203186 73.661148,74.406334 
	C79.339088,82.517883 84.058304,91.318207 88.919395,99.973457 
	C90.448273,102.695633 92.034081,105.706909 95.211433,104.749794 
	C97.304810,104.119202 99.174423,101.356537 100.287247,99.121803 
	C103.559601,92.550354 106.404289,85.765945 109.689896,78.812515 
z"/>
</svg>